<mxfile host="app.diagrams.net" modified="2022-06-11T15:45:43.011Z" agent="5.0 (Windows NT 10.0; Win64; x64) AppleWebKit/537.36 (KHTML, like Gecko) Chrome/102.0.0.0 Safari/537.36" etag="LP7uVjBDw7W0D9Sm0lp1" version="19.0.3" type="github">
  <diagram id="kgpKYQtTHZ0yAKxKKP6v" name="Page-1">
    <mxGraphModel dx="846" dy="564" grid="1" gridSize="10" guides="1" tooltips="1" connect="1" arrows="1" fold="1" page="1" pageScale="1" pageWidth="850" pageHeight="1100" math="0" shadow="0">
      <root>
        <mxCell id="0" />
        <mxCell id="1" parent="0" />
        <mxCell id="3nuBFxr9cyL0pnOWT2aG-1" value="user" style="shape=umlLifeline;perimeter=lifelinePerimeter;container=1;collapsible=0;recursiveResize=0;rounded=0;shadow=0;strokeWidth=1;" parent="1" vertex="1">
          <mxGeometry x="120" y="80" width="100" height="420" as="geometry" />
        </mxCell>
        <mxCell id="3nuBFxr9cyL0pnOWT2aG-2" value="" style="points=[];perimeter=orthogonalPerimeter;rounded=0;shadow=0;strokeWidth=1;" parent="3nuBFxr9cyL0pnOWT2aG-1" vertex="1">
          <mxGeometry x="45" y="70" width="10" height="320" as="geometry" />
        </mxCell>
        <mxCell id="3nuBFxr9cyL0pnOWT2aG-5" value="ro web" style="shape=umlLifeline;perimeter=lifelinePerimeter;container=1;collapsible=0;recursiveResize=0;rounded=0;shadow=0;strokeWidth=1;" parent="1" vertex="1">
          <mxGeometry x="260" y="80" width="100" height="420" as="geometry" />
        </mxCell>
        <mxCell id="3nuBFxr9cyL0pnOWT2aG-6" value="" style="points=[];perimeter=orthogonalPerimeter;rounded=0;shadow=0;strokeWidth=1;" parent="3nuBFxr9cyL0pnOWT2aG-5" vertex="1">
          <mxGeometry x="45" y="80" width="10" height="310" as="geometry" />
        </mxCell>
        <mxCell id="4XZRSgkdcvJ2gbIt5PSQ-21" value="สถานะเติม" style="verticalAlign=bottom;endArrow=block;shadow=0;strokeWidth=1;exitX=0.5;exitY=0.75;exitDx=0;exitDy=0;exitPerimeter=0;" edge="1" parent="3nuBFxr9cyL0pnOWT2aG-5">
          <mxGeometry relative="1" as="geometry">
            <mxPoint x="45.5" y="340" as="sourcePoint" />
            <mxPoint x="-95" y="340" as="targetPoint" />
          </mxGeometry>
        </mxCell>
        <mxCell id="3nuBFxr9cyL0pnOWT2aG-8" value="เติม vip" style="verticalAlign=bottom;endArrow=block;entryX=0;entryY=0;shadow=0;strokeWidth=1;" parent="1" source="3nuBFxr9cyL0pnOWT2aG-2" target="3nuBFxr9cyL0pnOWT2aG-6" edge="1">
          <mxGeometry relative="1" as="geometry">
            <mxPoint x="275" y="160" as="sourcePoint" />
          </mxGeometry>
        </mxCell>
        <mxCell id="4XZRSgkdcvJ2gbIt5PSQ-1" value="ro api" style="shape=umlLifeline;perimeter=lifelinePerimeter;container=1;collapsible=0;recursiveResize=0;rounded=0;shadow=0;strokeWidth=1;" vertex="1" parent="1">
          <mxGeometry x="400" y="80" width="100" height="420" as="geometry" />
        </mxCell>
        <mxCell id="4XZRSgkdcvJ2gbIt5PSQ-2" value="" style="points=[];perimeter=orthogonalPerimeter;rounded=0;shadow=0;strokeWidth=1;" vertex="1" parent="4XZRSgkdcvJ2gbIt5PSQ-1">
          <mxGeometry x="45" y="80" width="10" height="90" as="geometry" />
        </mxCell>
        <mxCell id="4XZRSgkdcvJ2gbIt5PSQ-13" value="" style="points=[];perimeter=orthogonalPerimeter;rounded=0;shadow=0;strokeWidth=1;" vertex="1" parent="4XZRSgkdcvJ2gbIt5PSQ-1">
          <mxGeometry x="45" y="185" width="10" height="125" as="geometry" />
        </mxCell>
        <mxCell id="4XZRSgkdcvJ2gbIt5PSQ-22" value="ตรวจสอบจำนวนเงิน สถานะ" style="verticalAlign=bottom;endArrow=none;shadow=0;strokeWidth=1;startArrow=block;startFill=1;endFill=0;entryX=0.18;entryY=0.539;entryDx=0;entryDy=0;entryPerimeter=0;exitX=0.1;exitY=0.757;exitDx=0;exitDy=0;exitPerimeter=0;" edge="1" parent="4XZRSgkdcvJ2gbIt5PSQ-1" source="4XZRSgkdcvJ2gbIt5PSQ-13" target="4XZRSgkdcvJ2gbIt5PSQ-13">
          <mxGeometry relative="1" as="geometry">
            <mxPoint x="-240" y="260" as="sourcePoint" />
            <mxPoint x="34.5" y="260" as="targetPoint" />
            <Array as="points">
              <mxPoint x="-20" y="260" />
            </Array>
          </mxGeometry>
        </mxCell>
        <mxCell id="4XZRSgkdcvJ2gbIt5PSQ-18" value="เพิ่ม item vip" style="verticalAlign=bottom;endArrow=block;shadow=0;strokeWidth=1;entryX=-0.22;entryY=0.413;entryDx=0;entryDy=0;entryPerimeter=0;" edge="1" parent="4XZRSgkdcvJ2gbIt5PSQ-1" target="4XZRSgkdcvJ2gbIt5PSQ-17">
          <mxGeometry relative="1" as="geometry">
            <mxPoint x="55" y="290" as="sourcePoint" />
            <mxPoint x="192.25" y="290" as="targetPoint" />
          </mxGeometry>
        </mxCell>
        <mxCell id="4XZRSgkdcvJ2gbIt5PSQ-3" value="ro db" style="shape=umlLifeline;perimeter=lifelinePerimeter;container=1;collapsible=0;recursiveResize=0;rounded=0;shadow=0;strokeWidth=1;" vertex="1" parent="1">
          <mxGeometry x="540" y="80" width="100" height="420" as="geometry" />
        </mxCell>
        <mxCell id="4XZRSgkdcvJ2gbIt5PSQ-17" value="" style="points=[];perimeter=orthogonalPerimeter;rounded=0;shadow=0;strokeWidth=1;" vertex="1" parent="4XZRSgkdcvJ2gbIt5PSQ-3">
          <mxGeometry x="45" y="280" width="10" height="30" as="geometry" />
        </mxCell>
        <mxCell id="4XZRSgkdcvJ2gbIt5PSQ-4" value="" style="points=[];perimeter=orthogonalPerimeter;rounded=0;shadow=0;strokeWidth=1;" vertex="1" parent="4XZRSgkdcvJ2gbIt5PSQ-3">
          <mxGeometry x="45" y="80" width="10" height="60" as="geometry" />
        </mxCell>
        <mxCell id="4XZRSgkdcvJ2gbIt5PSQ-11" value="ตัวละคร offline" style="verticalAlign=bottom;endArrow=block;entryX=0.9;entryY=0.188;shadow=0;strokeWidth=1;entryDx=0;entryDy=0;entryPerimeter=0;exitX=0.5;exitY=0.75;exitDx=0;exitDy=0;exitPerimeter=0;" edge="1" parent="4XZRSgkdcvJ2gbIt5PSQ-3">
          <mxGeometry relative="1" as="geometry">
            <mxPoint x="45" y="120" as="sourcePoint" />
            <mxPoint x="-91" y="120.08000000000004" as="targetPoint" />
          </mxGeometry>
        </mxCell>
        <mxCell id="4XZRSgkdcvJ2gbIt5PSQ-10" value="ดึงตัวละคร" style="verticalAlign=bottom;endArrow=block;entryX=0.18;entryY=0.25;shadow=0;strokeWidth=1;exitX=0.98;exitY=0.063;exitDx=0;exitDy=0;exitPerimeter=0;entryDx=0;entryDy=0;entryPerimeter=0;" edge="1" parent="4XZRSgkdcvJ2gbIt5PSQ-3">
          <mxGeometry relative="1" as="geometry">
            <mxPoint x="-87.00000000000006" y="100.08000000000004" as="sourcePoint" />
            <mxPoint x="45" y="100" as="targetPoint" />
          </mxGeometry>
        </mxCell>
        <mxCell id="4XZRSgkdcvJ2gbIt5PSQ-14" value="รหัส" style="verticalAlign=bottom;endArrow=block;shadow=0;strokeWidth=1;" edge="1" parent="4XZRSgkdcvJ2gbIt5PSQ-3" target="4XZRSgkdcvJ2gbIt5PSQ-5">
          <mxGeometry relative="1" as="geometry">
            <mxPoint x="-85" y="210" as="sourcePoint" />
            <mxPoint x="55" y="210" as="targetPoint" />
          </mxGeometry>
        </mxCell>
        <mxCell id="4XZRSgkdcvJ2gbIt5PSQ-5" value="true wallet" style="shape=umlLifeline;perimeter=lifelinePerimeter;container=1;collapsible=0;recursiveResize=0;rounded=0;shadow=0;strokeWidth=1;" vertex="1" parent="1">
          <mxGeometry x="680" y="80" width="100" height="420" as="geometry" />
        </mxCell>
        <mxCell id="4XZRSgkdcvJ2gbIt5PSQ-6" value="" style="points=[];perimeter=orthogonalPerimeter;rounded=0;shadow=0;strokeWidth=1;" vertex="1" parent="4XZRSgkdcvJ2gbIt5PSQ-5">
          <mxGeometry x="45" y="190" width="10" height="50" as="geometry" />
        </mxCell>
        <mxCell id="4XZRSgkdcvJ2gbIt5PSQ-7" value="ดึงตัวละคร" style="verticalAlign=bottom;endArrow=block;shadow=0;strokeWidth=1;" edge="1" parent="1">
          <mxGeometry relative="1" as="geometry">
            <mxPoint x="310" y="170" as="sourcePoint" />
            <mxPoint x="450" y="170" as="targetPoint" />
          </mxGeometry>
        </mxCell>
        <mxCell id="4XZRSgkdcvJ2gbIt5PSQ-8" value="ตัวละคร offline" style="verticalAlign=bottom;endArrow=block;shadow=0;strokeWidth=1;exitX=0.5;exitY=0.75;exitDx=0;exitDy=0;exitPerimeter=0;" edge="1" parent="1" source="4XZRSgkdcvJ2gbIt5PSQ-2" target="3nuBFxr9cyL0pnOWT2aG-5">
          <mxGeometry relative="1" as="geometry">
            <mxPoint x="400" y="200" as="sourcePoint" />
            <mxPoint x="336.79999999999995" y="200" as="targetPoint" />
          </mxGeometry>
        </mxCell>
        <mxCell id="4XZRSgkdcvJ2gbIt5PSQ-9" value="เลือกตัวละครใส่ รหัส" style="verticalAlign=bottom;endArrow=open;dashed=1;endSize=8;exitX=-0.22;exitY=0.288;shadow=0;strokeWidth=1;exitDx=0;exitDy=0;exitPerimeter=0;startArrow=open;startFill=0;" edge="1" parent="1" source="3nuBFxr9cyL0pnOWT2aG-6" target="3nuBFxr9cyL0pnOWT2aG-1">
          <mxGeometry relative="1" as="geometry">
            <mxPoint x="180" y="209.99999999999977" as="targetPoint" />
            <mxPoint x="310" y="209.99999999999977" as="sourcePoint" />
          </mxGeometry>
        </mxCell>
        <mxCell id="4XZRSgkdcvJ2gbIt5PSQ-12" value="ตัวละคร รหัส" style="verticalAlign=bottom;endArrow=block;shadow=0;strokeWidth=1;" edge="1" parent="1">
          <mxGeometry relative="1" as="geometry">
            <mxPoint x="310" y="280" as="sourcePoint" />
            <mxPoint x="450" y="280" as="targetPoint" />
          </mxGeometry>
        </mxCell>
        <mxCell id="4XZRSgkdcvJ2gbIt5PSQ-15" value="จำนวนเงิน สถานะ" style="verticalAlign=bottom;endArrow=none;shadow=0;strokeWidth=1;startArrow=block;startFill=1;endFill=0;" edge="1" parent="1">
          <mxGeometry relative="1" as="geometry">
            <mxPoint x="452.75" y="320" as="sourcePoint" />
            <mxPoint x="727.25" y="320" as="targetPoint" />
          </mxGeometry>
        </mxCell>
        <mxCell id="4XZRSgkdcvJ2gbIt5PSQ-20" value="สถานะเติม" style="verticalAlign=bottom;endArrow=block;shadow=0;strokeWidth=1;exitX=0.5;exitY=0.75;exitDx=0;exitDy=0;exitPerimeter=0;" edge="1" parent="1">
          <mxGeometry relative="1" as="geometry">
            <mxPoint x="445" y="390" as="sourcePoint" />
            <mxPoint x="304.5" y="390" as="targetPoint" />
          </mxGeometry>
        </mxCell>
      </root>
    </mxGraphModel>
  </diagram>
</mxfile>
